<svg xmlns="http://www.w3.org/2000/svg" viewBox="0 0 1280 720" role="img" aria-labelledby="title desc">
  <title id="title">Prompt'una Bandim Bolum 6</title>
  <desc id="desc">Bolum 6 icin soyut kapak tasarimi</desc>
  <defs>
    <linearGradient id="bg" x1="0" y1="0" x2="1" y2="1">
      <stop offset="0%" stop-color="#141b22"/>
      <stop offset="100%" stop-color="#f57c4e"/>
    </linearGradient>
  </defs>
  <rect width="1280" height="720" fill="url(#bg)"/>
  <path d="M837 95c146 0 264 118 264 264S983 592 837 592c-106 0-198-62-240-152 50 32 109 50 172 50 180 0 326-146 326-326 0-28-4-56-10-82 17-11 36-18 58-18z" fill="rgba(255,255,255,0.12)"/>
  <rect x="78" y="86" width="188" height="44" rx="22" fill="#ffffff" fill-opacity="0.16"/>
  <text x="116" y="116" font-family="PT Sans, Arial, sans-serif" font-size="28" fill="#ffffff">SERI</text>
  <text x="78" y="292" font-family="PT Sans, Arial, sans-serif" font-size="84" font-weight="700" fill="#ffffff">Prompt'una</text>
  <text x="78" y="390" font-family="PT Sans, Arial, sans-serif" font-size="84" font-weight="700" fill="#ffffff">Bandim</text>
  <text x="78" y="470" font-family="PT Sans, Arial, sans-serif" font-size="34" fill="#ffe5d8">Haftanin yapay zeka gundemi</text>
  <text x="78" y="580" font-family="PT Sans, Arial, sans-serif" font-size="126" font-weight="700" fill="#ffffff">06</text>
</svg>